<svg version="1.1" id="Layer_1" xmlns="http://www.w3.org/2000/svg" xmlns:xlink="http://www.w3.org/1999/xlink" x="0px" y="0px"
	 viewBox="0 0 223.4 33.3" style="enable-background:new 0 0 223.4 33.3;" xml:space="preserve">
<style type="text/css">
	.st0{fill:#FFFFFF;}
</style>
<g>
	<path class="st0" d="M0.9,11.7L0.9,11.7c0-4.8,3.7-8.5,8.8-8.5c2.9,0,4.9,0.9,6.6,2.4l-2.7,3.2c-1.2-1-2.3-1.5-3.9-1.5
		c-2.4,0-4.2,2-4.2,4.5l0,0c0,2.7,1.8,4.6,4.4,4.6c1.1,0,2-0.2,2.6-0.7v-2H9.4v-3.3h7.5v7.3c-1.7,1.4-4.1,2.5-7.1,2.5
		C4.7,20.2,0.9,16.7,0.9,11.7z"/>
	<path class="st0" d="M18.9,11.7L18.9,11.7c0-4.7,3.8-8.5,8.8-8.5s8.8,3.8,8.8,8.5l0,0c0,4.7-3.8,8.5-8.8,8.5
		C22.6,20.2,18.9,16.4,18.9,11.7z M31.8,11.7L31.8,11.7c0-2.4-1.7-4.5-4.2-4.5s-4.2,2-4.2,4.4l0,0c0,2.4,1.7,4.4,4.2,4.4
		C30.2,16.1,31.8,14.1,31.8,11.7z"/>
	<path class="st0" d="M42.1,7.5h-4.9v-4h14.3v4h-4.9v12.4h-4.5L42.1,7.5L42.1,7.5z"/>
	<path class="st0" d="M53.5,3.5H58v6.1h5.8V3.5h4.5v16.3h-4.5v-6.2H58v6.2h-4.5V3.5z"/>
	<path class="st0" d="M76.9,3.4h4.4l7,16.5h-4.9L82.2,17h-6.3l-1.2,2.9H70L76.9,3.4z M80.9,13.4l-1.8-4.6l-1.8,4.6H80.9L80.9,13.4z"
		/>
	<path class="st0" d="M89.8,3.5h4.8l3.9,6.3l3.9-6.3h4.8v16.3h-4.5v-9.4l-4.2,6.4h-0.1l-4.2-6.4v9.4h-4.4L89.8,3.5L89.8,3.5z"/>
</g>
<g>
	<path class="st0" d="M110.3,11.7L110.3,11.7c0-4.5,3.3-8.5,8.2-8.5c2.8,0,4.5,0.8,6.1,2.2l-1.2,1.4c-1.3-1.1-2.7-1.9-5-1.9
		c-3.6,0-6.2,3.1-6.2,6.7l0,0c0,3.9,2.5,6.8,6.5,6.8c1.9,0,3.6-0.7,4.7-1.6v-4.1h-5V11h6.7v6.5c-1.5,1.4-3.8,2.5-6.6,2.5
		C113.5,20.1,110.3,16.4,110.3,11.7z"/>
	<path class="st0" d="M135.4,3.4h1.7l7.4,16.5h-2l-1.9-4.3h-8.9l-1.9,4.3h-1.9L135.4,3.4z M139.9,13.8l-3.7-8.3l-3.7,8.3H139.9z"/>
	<path class="st0" d="M147,18.6l10.6-13.4h-10.2V3.5h12.7v1.2l-10.6,13.4h10.6v1.7H147V18.6z"/>
	<path class="st0" d="M163.9,3.5h11.8v1.7h-10v5.6h8.9v1.7h-8.9v5.7h10.1v1.7h-11.9L163.9,3.5L163.9,3.5z"/>
	<path class="st0" d="M183.9,5.2h-5.5V3.5h12.8v1.7h-5.5v14.6h-1.9L183.9,5.2L183.9,5.2z"/>
	<path class="st0" d="M199,5.2h-5.5V3.5h12.8v1.7h-5.5v14.6H199V5.2z"/>
	<path class="st0" d="M209.8,3.5h11.8v1.7h-10v5.6h8.9v1.7h-8.9v5.7h10.1v1.7h-11.9L209.8,3.5L209.8,3.5z"/>
</g>
<g>
	<path class="st0" d="M3,24.8H0.5v-0.7h5.9v0.7H3.9v6.1H3V24.8z"/>
	<path class="st0" d="M7.7,23.8h0.8v3c0.4-0.5,0.9-1,1.9-1c1.3,0,2.1,0.8,2.1,2v3.1h-0.8V28c0-0.9-0.6-1.5-1.5-1.5
		c-1,0-1.7,0.6-1.7,1.6V31H7.7V23.8z"/>
	<path class="st0" d="M13.9,28.4L13.9,28.4c0-1.5,1.1-2.6,2.7-2.6s2.6,1.2,2.6,2.7c0,0.1,0,0.2,0,0.2h-4.4c0.1,1.1,1,1.7,1.9,1.7
		c0.8,0,1.3-0.3,1.7-0.7l0.5,0.4c-0.6,0.6-1.2,0.9-2.3,0.9C15.2,31,13.9,30,13.9,28.4z M18.3,28.1c-0.1-0.9-0.7-1.7-1.8-1.7
		c-1,0-1.7,0.7-1.8,1.7H18.3z"/>
	<path class="st0" d="M24,24.1h2.8c1.7,0,2.8,0.8,2.8,2.2l0,0c0,1.5-1.3,2.2-2.9,2.2h-1.8v2.4H24V24.1z M26.7,27.8
		c1.2,0,2.1-0.6,2.1-1.5l0,0c0-1-0.8-1.5-2-1.5h-1.9v3H26.7z"/>
	<path class="st0" d="M31,23.8h0.8v7.1H31V23.8z"/>
	<path class="st0" d="M33.4,29.5L33.4,29.5c0-1.1,1-1.6,2.4-1.6c0.7,0,1.2,0.1,1.7,0.2v-0.2c0-0.9-0.6-1.4-1.6-1.4
		c-0.7,0-1.2,0.2-1.7,0.4L34,26.3c0.6-0.3,1.2-0.4,2-0.4s1.4,0.2,1.8,0.6c0.4,0.3,0.6,0.8,0.6,1.5v3.1h-0.8v-0.8
		c-0.4,0.5-1,0.9-2,0.9C34.4,31,33.4,30.5,33.4,29.5z M37.4,29.1v-0.5c-0.4-0.1-1-0.2-1.6-0.2c-1,0-1.6,0.4-1.6,1l0,0
		c0,0.6,0.6,1,1.4,1C36.6,30.4,37.4,29.9,37.4,29.1z"/>
	<path class="st0" d="M39.6,28.4L39.6,28.4c0-1.4,1.2-2.6,2.8-2.6c1,0,1.7,0.4,2.2,0.9l-0.5,0.5c-0.4-0.4-0.9-0.8-1.7-0.8
		c-1.1,0-2,0.9-2,1.9l0,0c0,1.1,0.9,2,2,2c0.7,0,1.3-0.3,1.7-0.8l0.5,0.4c-0.6,0.6-1.2,1-2.3,1C40.9,31,39.6,29.8,39.6,28.4z"/>
	<path class="st0" d="M45.6,28.4L45.6,28.4c0-1.5,1.1-2.6,2.7-2.6c1.6,0,2.6,1.2,2.6,2.7c0,0.1,0,0.2,0,0.2h-4.4
		c0.1,1.1,1,1.7,1.9,1.7c0.8,0,1.3-0.3,1.7-0.7l0.5,0.4C50,30.7,49.4,31,48.3,31C46.8,31,45.6,30,45.6,28.4z M50,28.1
		c-0.1-0.9-0.7-1.7-1.8-1.7c-1,0-1.7,0.7-1.8,1.7H50z"/>
	<path class="st0" d="M55.8,26.6H55v-0.7h0.8v-0.4c0-0.6,0.2-1,0.5-1.3s0.7-0.4,1.2-0.4c0.4,0,0.6,0,0.9,0.1v0.7
		c-0.3-0.1-0.5-0.1-0.8-0.1c-0.6,0-1,0.4-1,1.1V26h1.8v0.6h-1.7V31h-0.8L55.8,26.6L55.8,26.6z"/>
	<path class="st0" d="M59,28.4L59,28.4c0-1.4,1.2-2.6,2.9-2.6s2.9,1.2,2.9,2.6l0,0c0,1.4-1.2,2.6-2.9,2.6S59,29.9,59,28.4z
		 M63.9,28.4L63.9,28.4c0-1.1-0.9-2-2.1-2c-1.2,0-2,0.9-2,1.9l0,0c0,1.1,0.9,2,2,2C63,30.4,63.9,29.5,63.9,28.4z"/>
	<path class="st0" d="M66.2,25.9H67v1.3c0.4-0.8,1.2-1.4,2.3-1.4v0.8h-0.1c-1.2,0-2.2,0.8-2.2,2.3v2h-0.8
		C66.2,30.9,66.2,25.9,66.2,25.9z"/>
	<path class="st0" d="M73.9,24.1h0.8l4.7,5.5v-5.5h0.8v6.8h-0.7l-4.8-5.6v5.6h-0.8C73.9,30.9,73.9,24.1,73.9,24.1z"/>
	<path class="st0" d="M81.9,28.4L81.9,28.4c0-1.5,1.1-2.6,2.7-2.6s2.6,1.2,2.6,2.7c0,0.1,0,0.2,0,0.2h-4.4c0.1,1.1,1,1.7,1.9,1.7
		c0.8,0,1.3-0.3,1.7-0.7l0.5,0.4c-0.6,0.6-1.2,0.9-2.3,0.9C83.1,31,81.9,30,81.9,28.4z M86.3,28.1c-0.1-0.9-0.7-1.7-1.8-1.7
		c-1,0-1.7,0.7-1.8,1.7H86.3z"/>
	<path class="st0" d="M87.8,25.9h0.9l1.5,4l1.5-4.1h0.7l1.5,4.1l1.5-4h0.9L94.2,31h-0.7L92,27l-1.5,4h-0.7L87.8,25.9z"/>
	<path class="st0" d="M103.2,28.2l-3.1-4.1h1l2.5,3.4l2.5-3.4h1l-3.1,4.1v2.7h-0.9L103.2,28.2L103.2,28.2z"/>
	<path class="st0" d="M106.8,28.4L106.8,28.4c0-1.4,1.2-2.6,2.9-2.6c1.7,0,2.9,1.2,2.9,2.6l0,0c0,1.4-1.2,2.6-2.9,2.6
		C108.1,31,106.8,29.9,106.8,28.4z M111.8,28.4L111.8,28.4c0-1.1-0.9-2-2.1-2s-2,0.9-2,1.9l0,0c0,1.1,0.9,2,2,2
		C110.9,30.4,111.8,29.5,111.8,28.4z"/>
	<path class="st0" d="M114.1,25.9h0.8v1.3c0.4-0.8,1.2-1.4,2.3-1.4v0.8h-0.1c-1.2,0-2.2,0.8-2.2,2.3v2h-0.8
		C114.1,30.9,114.1,25.9,114.1,25.9z"/>
	<path class="st0" d="M118.4,23.8h0.8v4.9l3-2.8h1l-2.3,2.2l2.4,2.9h-1l-2-2.3l-1.1,1V31h-0.8C118.4,30.9,118.4,23.8,118.4,23.8z"/>
	<path class="st0" d="M127.9,24.1h2.8c1.7,0,2.8,0.8,2.8,2.2l0,0c0,1.5-1.3,2.2-2.9,2.2h-1.8v2.4H128L127.9,24.1L127.9,24.1z
		 M130.6,27.8c1.2,0,2.1-0.6,2.1-1.5l0,0c0-1-0.8-1.5-2-1.5h-1.9v3H130.6z"/>
	<path class="st0" d="M134.5,28.4L134.5,28.4c0-1.4,1.2-2.6,2.9-2.6s2.9,1.2,2.9,2.6l0,0c0,1.4-1.2,2.6-2.9,2.6
		S134.5,29.9,134.5,28.4z M139.4,28.4L139.4,28.4c0-1.1-0.9-2-2.1-2c-1.2,0-2,0.9-2,1.9l0,0c0,1.1,0.9,2,2,2
		C138.6,30.4,139.4,29.5,139.4,28.4z"/>
	<path class="st0" d="M141.8,23.8h0.8v7.1h-0.8V23.8z"/>
	<path class="st0" d="M144.6,24h0.9v0.8h-0.9V24z M144.6,25.9h0.8v5h-0.8V25.9z"/>
	<path class="st0" d="M147,28.4L147,28.4c0-1.4,1.2-2.6,2.8-2.6c1,0,1.7,0.4,2.2,0.9l-0.5,0.5c-0.4-0.4-0.9-0.8-1.7-0.8
		c-1.1,0-2,0.9-2,1.9l0,0c0,1.1,0.9,2,2,2c0.7,0,1.3-0.3,1.7-0.8l0.5,0.4c-0.6,0.6-1.2,1-2.3,1C148.2,31,147,29.8,147,28.4z"/>
	<path class="st0" d="M157.6,25.9h0.9l-2.3,5.2c-0.5,1-1,1.4-1.8,1.4c-0.5,0-0.8-0.1-1.2-0.3l0.3-0.6c0.3,0.1,0.5,0.2,0.9,0.2
		c0.5,0,0.8-0.2,1.1-0.9l-2.5-5h0.9l2,4.2L157.6,25.9z"/>
	<path class="st0" d="M162.5,29.5L162.5,29.5c0-1.1,1-1.6,2.4-1.6c0.7,0,1.2,0.1,1.7,0.2v-0.2c0-0.9-0.6-1.4-1.6-1.4
		c-0.7,0-1.2,0.2-1.7,0.4l-0.2-0.6c0.6-0.3,1.2-0.4,2-0.4s1.4,0.2,1.8,0.6c0.4,0.3,0.6,0.8,0.6,1.5v3.1h-0.8v-0.8
		c-0.4,0.5-1,0.9-2,0.9C163.6,31,162.5,30.5,162.5,29.5z M166.6,29.1v-0.5c-0.4-0.1-1-0.2-1.6-0.2c-1,0-1.6,0.4-1.6,1l0,0
		c0,0.6,0.6,1,1.4,1C165.8,30.4,166.6,29.9,166.6,29.1z"/>
	<path class="st0" d="M169.2,25.9h0.8v0.9c0.4-0.5,0.9-1,1.9-1c1.3,0,2.1,0.8,2.1,2v3.1h-0.8V28c0-0.9-0.6-1.5-1.5-1.5
		c-1,0-1.7,0.6-1.7,1.6V31h-0.8V25.9L169.2,25.9z"/>
	<path class="st0" d="M175.4,28.4L175.4,28.4c0-1.7,1.3-2.6,2.6-2.6c1,0,1.7,0.5,2.1,1.1v-3h0.8V31h-0.8v-1
		c-0.4,0.6-1.1,1.1-2.1,1.1C176.7,31,175.4,30.1,175.4,28.4z M180.2,28.4L180.2,28.4c0-1.2-1-2-2-2c-1.1,0-1.9,0.7-1.9,1.9l0,0
		c0,1.2,0.9,1.9,1.9,1.9C179.2,30.4,180.2,29.6,180.2,28.4z"/>
	<path class="st0" d="M186.2,24.1h2.8c1.7,0,2.8,0.8,2.8,2.2l0,0c0,1.5-1.3,2.2-2.9,2.2H187v2.4h-0.8V24.1z M188.9,27.8
		c1.2,0,2.1-0.6,2.1-1.5l0,0c0-1-0.8-1.5-2-1.5h-2v3H188.9z"/>
	<path class="st0" d="M192.8,28.4L192.8,28.4c0-1.4,1.2-2.6,2.9-2.6s2.9,1.2,2.9,2.6l0,0c0,1.4-1.2,2.6-2.9,2.6
		S192.8,29.9,192.8,28.4z M197.7,28.4L197.7,28.4c0-1.1-0.9-2-2.1-2c-1.2,0-2,0.9-2,1.9l0,0c0,1.1,0.9,2,2,2
		C196.9,30.4,197.7,29.5,197.7,28.4z"/>
	<path class="st0" d="M200.1,23.8h0.8v7.1h-0.8V23.8z"/>
	<path class="st0" d="M202.9,24h0.9v0.8h-0.9V24z M203,25.9h0.8v5H203V25.9z"/>
	<path class="st0" d="M206,29.6v-3h-0.8v-0.7h0.8v-1.5h0.8v1.5h1.8v0.7h-1.8v2.9c0,0.6,0.4,0.8,0.9,0.8c0.3,0,0.5,0,0.8-0.2v0.6
		c-0.3,0.1-0.6,0.2-1,0.2C206.7,31,206,30.6,206,29.6z"/>
	<path class="st0" d="M210,24h0.9v0.8H210V24z M210.1,25.9h0.8v5h-0.8V25.9z"/>
	<path class="st0" d="M212.5,28.4L212.5,28.4c0-1.4,1.2-2.6,2.8-2.6c1,0,1.7,0.4,2.2,0.9l-0.5,0.5c-0.4-0.4-0.9-0.8-1.7-0.8
		c-1.1,0-2,0.9-2,1.9l0,0c0,1.1,0.9,2,2,2c0.7,0,1.3-0.3,1.7-0.8l0.5,0.4c-0.6,0.6-1.2,1-2.3,1C213.7,31,212.5,29.8,212.5,28.4z"/>
	<path class="st0" d="M218.5,30.3l0.4-0.5c0.6,0.4,1.3,0.6,1.9,0.6c0.7,0,1.1-0.3,1.1-0.8l0,0c0-0.5-0.7-0.7-1.4-0.9
		c-0.9-0.2-1.8-0.5-1.8-1.4l0,0c0-0.9,0.8-1.4,1.9-1.4c0.7,0,1.4,0.2,2,0.6l-0.4,0.6c-0.5-0.3-1.1-0.5-1.6-0.5
		c-0.7,0-1.1,0.3-1.1,0.7l0,0c0,0.5,0.7,0.7,1.4,0.9c0.9,0.2,1.8,0.5,1.8,1.4l0,0c0,1-0.9,1.5-2,1.5C220,31,219.1,30.7,218.5,30.3z"
		/>
</g>
</svg>
